<?xml version="1.0" encoding="UTF-8" standalone="no"?>
<!-- Generator: Adobe Illustrator 21.0.0, SVG Export Plug-In . SVG Version: 6.00 Build 0)  -->

<svg
   xmlns:dc="http://purl.org/dc/elements/1.1/"
   xmlns:cc="http://creativecommons.org/ns#"
   xmlns:rdf="http://www.w3.org/1999/02/22-rdf-syntax-ns#"
   xmlns:svg="http://www.w3.org/2000/svg"
   xmlns="http://www.w3.org/2000/svg"
   xmlns:sodipodi="http://sodipodi.sourceforge.net/DTD/sodipodi-0.dtd"
   xmlns:inkscape="http://www.inkscape.org/namespaces/inkscape"
   version="1.1"
   id="Layer_1"
   x="0px"
   y="0px"
   viewBox="0 0 610.3 265.3"
   style="enable-background:new 0 0 610.3 265.3;"
   xml:space="preserve"
   sodipodi:docname="pirati_hrad_cheb.svg"
   inkscape:version="0.92.3 (2405546, 2018-03-11)"><metadata
   id="metadata255"><rdf:RDF><cc:Work
       rdf:about=""><dc:format>image/svg+xml</dc:format><dc:type
         rdf:resource="http://purl.org/dc/dcmitype/StillImage" /></cc:Work></rdf:RDF></metadata><defs
   id="defs253"><filter
     style="color-interpolation-filters:sRGB;"
     inkscape:label="Invert"
     id="filter259"><feColorMatrix
       values="-1 0 0 0 1 0 -1 0 0 1 0 0 -1 0 1 0.21 0.72 0.07 1 0 "
       result="color2"
       id="feColorMatrix257" /></filter><filter
     style="color-interpolation-filters:sRGB;"
     inkscape:label="Invert"
     id="filter263"><feColorMatrix
       values="-1 0 0 0 1 0 -1 0 0 1 0 0 -1 0 1 0.21 0.72 0.07 1 0 "
       result="color2"
       id="feColorMatrix261" /></filter><filter
     style="color-interpolation-filters:sRGB;"
     inkscape:label="Invert"
     id="filter267"><feColorMatrix
       values="-1 0 0 0 1 0 -1 0 0 1 0 0 -1 0 1 0.21 0.72 0.07 1 0 "
       result="color2"
       id="feColorMatrix265" /></filter><filter
     style="color-interpolation-filters:sRGB;"
     inkscape:label="Invert"
     id="filter271"><feColorMatrix
       values="-1 0 0 0 1 0 -1 0 0 1 0 0 -1 0 1 0.21 0.72 0.07 1 0 "
       result="color2"
       id="feColorMatrix269" /></filter></defs><sodipodi:namedview
   pagecolor="#ffffff"
   bordercolor="#666666"
   borderopacity="1"
   objecttolerance="10"
   gridtolerance="10"
   guidetolerance="10"
   inkscape:pageopacity="0"
   inkscape:pageshadow="2"
   inkscape:window-width="1533"
   inkscape:window-height="845"
   id="namedview251"
   showgrid="false"
   inkscape:zoom="1.92"
   inkscape:cx="305.14999"
   inkscape:cy="132.64999"
   inkscape:window-x="67"
   inkscape:window-y="27"
   inkscape:window-maximized="1"
   inkscape:current-layer="Layer_1" />
<style
   type="text/css"
   id="style2">
	.st0{fill:#FFFFFF;}
	.st1{fill:#26231E;}
	.st2{fill:#12100B;}
</style>
<g
   id="g30"
   style="filter:url(#filter259)">
	<g
   id="g28">
		<g
   id="g20">
			<path
   class="st0"
   d="M32.3,141.2c0.2,0.7,0.4,1.5,0.5,2.2c1,5.7,1.5,11.5,3,17.1c7.6,28.6,24.2,50.6,49.5,65.9     c24.3,14.6,50.4,18.5,78,12.8c20.4-4.2,37.9-14.1,52.9-28.6c1.5-1.4,2.9-1.8,4.9-1.8c108.1,0,156.7,0,264.8,0.1     c2.3,0,3.2-0.7,3.9-2.8c7.9-23.2,15.9-46.3,23.8-69.4c0.6-1.9,1.4-2.6,3.5-2.6c10.3,0.1,20.7,0,31,0.1c2,0,3.1-0.5,3.8-2.6     c8.4-24.8,17-49.6,25.6-74.4c0.3-0.8,0.5-1.5,0.8-2.5c-1.5,0-2.7,0-3.9,0c-137.8,0-216.3,0-354.1,0.1c-4.1,0-7.2-0.8-10-3.9     c-1.5-1.7-3.6-3-5.5-4.4c-27.7-20.1-58.3-25.9-91.4-17.7c-21.2,5.2-39,16.5-53.5,32.8C46.6,76.2,38,93.2,34.3,112.7     c-0.8,4.3-1.4,8.6-2,12.9"
   id="path4" />
			<path
   class="st0"
   d="M32.3,141.2c0.2,0.7,0.4,1.5,0.5,2.2c1,5.7,1.5,11.5,3,17.1c7.6,28.6,24.2,50.6,49.5,65.9     c24.3,14.6,50.4,18.5,78,12.8c20.4-4.2,37.9-14.1,52.9-28.6c1.5-1.4,2.9-1.8,4.9-1.8c108.1,0,156.7,0,264.8,0.1     c2.3,0,3.2-0.7,3.9-2.8c7.9-23.2,15.9-46.3,23.8-69.4c0.6-1.9,1.4-2.6,3.5-2.6c10.3,0.1,20.7,0,31,0.1c2,0,3.1-0.5,3.8-2.6     c8.4-24.8,17-49.6,25.6-74.4c0.3-0.8,0.5-1.5,0.8-2.5c-1.5,0-2.7,0-3.9,0c-137.8,0-216.3,0-354.1,0.1c-4.1,0-7.2-0.8-10-3.9     c-1.5-1.7-3.6-3-5.5-4.4c-27.7-20.1-58.3-25.9-91.4-17.7c-21.2,5.2-39,16.5-53.5,32.8C46.6,76.2,38,93.2,34.3,112.7     c-0.8,4.3-1.4,8.6-2,12.9"
   id="path6" />
			<path
   class="st0"
   d="M32.3,141.2c0.2,0.7,0.4,1.5,0.5,2.2c1,5.7,1.5,11.5,3,17.1c7.6,28.6,24.2,50.6,49.5,65.9     c24.3,14.6,50.4,18.5,78,12.8c20.4-4.2,37.9-14.1,52.9-28.6c1.5-1.4,2.9-1.8,4.9-1.8c108.1,0,156.7,0,264.8,0.1     c2.3,0,3.2-0.7,3.9-2.8c7.9-23.2,15.9-46.3,23.8-69.4c0.6-1.9,1.4-2.6,3.5-2.6c10.3,0.1,20.7,0,31,0.1c2,0,3.1-0.5,3.8-2.6     c8.4-24.8,17-49.6,25.6-74.4c0.3-0.8,0.5-1.5,0.8-2.5c-1.5,0-2.7,0-3.9,0c-137.8,0-216.3,0-354.1,0.1c-4.1,0-7.2-0.8-10-3.9     c-1.5-1.7-3.6-3-5.5-4.4c-27.7-20.1-58.3-25.9-91.4-17.7c-21.2,5.2-39,16.5-53.5,32.8C46.6,76.2,38,93.2,34.3,112.7     c-0.8,4.3-1.4,8.6-2,12.9"
   id="path8" />
			<path
   class="st0"
   d="M32.3,141.2c0.2,0.7,0.4,1.5,0.5,2.2c1,5.7,1.5,11.5,3,17.1c7.6,28.6,24.2,50.6,49.5,65.9     c24.3,14.6,50.4,18.5,78,12.8c20.4-4.2,37.9-14.1,52.9-28.6c1.5-1.4,2.9-1.8,4.9-1.8c108.1,0,156.7,0,264.8,0.1     c2.3,0,3.2-0.7,3.9-2.8c7.9-23.2,15.9-46.3,23.8-69.4c0.6-1.9,1.4-2.6,3.5-2.6c10.3,0.1,20.7,0,31,0.1c2,0,3.1-0.5,3.8-2.6     c8.4-24.8,17-49.6,25.6-74.4c0.3-0.8,0.5-1.5,0.8-2.5c-1.5,0-2.7,0-3.9,0c-137.8,0-216.3,0-354.1,0.1c-4.1,0-7.2-0.8-10-3.9     c-1.5-1.7-3.6-3-5.5-4.4c-27.7-20.1-58.3-25.9-91.4-17.7c-21.2,5.2-39,16.5-53.5,32.8C46.6,76.2,38,93.2,34.3,112.7     c-0.8,4.3-1.4,8.6-2,12.9"
   id="path10" />
			<path
   class="st0"
   d="M32.3,141.2c0.2,0.7,0.4,1.5,0.5,2.2c1,5.7,1.5,11.5,3,17.1c7.6,28.6,24.2,50.6,49.5,65.9     c24.3,14.6,50.4,18.5,78,12.8c20.4-4.2,37.9-14.1,52.9-28.6c1.5-1.4,2.9-1.8,4.9-1.8c108.1,0,156.7,0,264.8,0.1     c2.3,0,3.2-0.7,3.9-2.8c7.9-23.2,15.9-46.3,23.8-69.4c0.6-1.9,1.4-2.6,3.5-2.6c10.3,0.1,20.7,0,31,0.1c2,0,3.1-0.5,3.8-2.6     c8.4-24.8,17-49.6,25.6-74.4c0.3-0.8,0.5-1.5,0.8-2.5c-1.5,0-2.7,0-3.9,0c-137.8,0-216.3,0-354.1,0.1c-4.1,0-7.2-0.8-10-3.9     c-1.5-1.7-3.6-3-5.5-4.4c-27.7-20.1-58.3-25.9-91.4-17.7c-21.2,5.2-39,16.5-53.5,32.8C46.6,76.2,38,93.2,34.3,112.7     c-0.8,4.3-1.4,8.6-2,12.9"
   id="path12" />
			<path
   class="st0"
   d="M32.3,141.2c0.2,0.7,0.4,1.5,0.5,2.2c1,5.7,1.5,11.5,3,17.1c7.6,28.6,24.2,50.6,49.5,65.9     c24.3,14.6,50.4,18.5,78,12.8c20.4-4.2,37.9-14.1,52.9-28.6c1.5-1.4,2.9-1.8,4.9-1.8c108.1,0,156.7,0,264.8,0.1     c2.3,0,3.2-0.7,3.9-2.8c7.9-23.2,15.9-46.3,23.8-69.4c0.6-1.9,1.4-2.6,3.5-2.6c10.3,0.1,20.7,0,31,0.1c2,0,3.1-0.5,3.8-2.6     c8.4-24.8,17-49.6,25.6-74.4c0.3-0.8,0.5-1.5,0.8-2.5c-1.5,0-2.7,0-3.9,0c-137.8,0-216.3,0-354.1,0.1c-4.1,0-7.2-0.8-10-3.9     c-1.5-1.7-3.6-3-5.5-4.4c-27.7-20.1-58.3-25.9-91.4-17.7c-21.2,5.2-39,16.5-53.5,32.8C46.6,76.2,38,93.2,34.3,112.7     c-0.8,4.3-1.4,8.6-2,12.9"
   id="path14" />
			<path
   class="st0"
   d="M32.3,141.2c0.2,0.7,0.4,1.5,0.5,2.2c1,5.7,1.5,11.5,3,17.1c7.6,28.6,24.2,50.6,49.5,65.9     c24.3,14.6,50.4,18.5,78,12.8c20.4-4.2,37.9-14.1,52.9-28.6c1.5-1.4,2.9-1.8,4.9-1.8c108.1,0,156.7,0,264.8,0.1     c2.3,0,3.2-0.7,3.9-2.8c7.9-23.2,15.9-46.3,23.8-69.4c0.6-1.9,1.4-2.6,3.5-2.6c10.3,0.1,20.7,0,31,0.1c2,0,3.1-0.5,3.8-2.6     c8.4-24.8,17-49.6,25.6-74.4c0.3-0.8,0.5-1.5,0.8-2.5c-1.5,0-2.7,0-3.9,0c-137.8,0-216.3,0-354.1,0.1c-4.1,0-7.2-0.8-10-3.9     c-1.5-1.7-3.6-3-5.5-4.4c-27.7-20.1-58.3-25.9-91.4-17.7c-21.2,5.2-39,16.5-53.5,32.8C46.6,76.2,38,93.2,34.3,112.7     c-0.8,4.3-1.4,8.6-2,12.9"
   id="path16" />
			<path
   class="st0"
   d="M32.3,141.2c0.2,0.7,0.4,1.5,0.5,2.2c1,5.7,1.5,11.5,3,17.1c7.6,28.6,24.2,50.6,49.5,65.9     c24.3,14.6,50.4,18.5,78,12.8c20.4-4.2,37.9-14.1,52.9-28.6c1.5-1.4,2.9-1.8,4.9-1.8c108.1,0,156.7,0,264.8,0.1     c2.3,0,3.2-0.7,3.9-2.8c7.9-23.2,15.9-46.3,23.8-69.4c0.6-1.9,1.4-2.6,3.5-2.6c10.3,0.1,20.7,0,31,0.1c2,0,3.1-0.5,3.8-2.6     c8.4-24.8,17-49.6,25.6-74.4c0.3-0.8,0.5-1.5,0.8-2.5c-1.5,0-2.7,0-3.9,0c-137.8,0-216.3,0-354.1,0.1c-4.1,0-7.2-0.8-10-3.9     c-1.5-1.7-3.6-3-5.5-4.4c-27.7-20.1-58.3-25.9-91.4-17.7c-21.2,5.2-39,16.5-53.5,32.8C46.6,76.2,38,93.2,34.3,112.7     c-0.8,4.3-1.4,8.6-2,12.9"
   id="path18" />
		</g>
		<path
   d="M32.3,125.5c0.7-4.3,1.2-8.6,2-12.9C38,93.2,46.6,76.2,59.7,61.5C74.3,45.2,92,33.9,113.2,28.7    c33.1-8.2,63.7-2.4,91.4,17.7c1.9,1.4,4,2.6,5.5,4.4c2.7,3.1,5.9,3.9,10,3.9c137.8-0.1,216.3-0.1,354.1-0.1c1.2,0,2.3,0,3.9,0    c-0.3,1-0.5,1.8-0.8,2.5c-8.5,24.8-17.1,49.6-25.6,74.4c-0.7,2.1-1.7,2.6-3.8,2.6c-10.3-0.1-20.7,0-31-0.1c-2.1,0-2.9,0.7-3.5,2.6    c-7.9,23.2-15.9,46.3-23.8,69.4c-0.7,2.1-1.6,2.8-3.9,2.8c-108.1-0.1-156.7-0.1-264.8-0.1c-2,0-3.4,0.4-4.9,1.8    c-15,14.4-32.4,24.3-52.9,28.6c-27.6,5.7-53.8,1.8-78-12.8c-25.4-15.2-41.9-37.3-49.5-65.9c-1.5-5.6-2-11.4-3-17.1    c-0.1-0.7-0.3-1.5-0.5-2.2C32.3,136,32.3,130.8,32.3,125.5z M248.7,132.3c1,0,1.8,0,2.5,0c118.5,0,177.6,0,296.1,0    c1.7,0,2.6-0.4,3.2-2.2c8.1-23.8,16.3-47.5,24.5-71.3c0.3-0.7,0.4-1.5,0.6-2.3c-139.5,0-219.3,0-359,0    c10.2,10.4,18,21.8,23.5,34.8C245.6,104.3,248.3,117.9,248.7,132.3z M247.1,133.3c0-58.6-48-106.6-106.6-106.6    c-58.6,0-106.6,47.9-106.7,106.5C33.7,191.9,81.9,240.1,140.5,240C199.2,239.9,247.1,191.9,247.1,133.3z"
   id="path22" />
		<path
   class="st0"
   d="M248.7,132.3c-0.4-14.4-3-28-8.5-41c-5.5-13-13.4-24.4-23.5-34.8c139.7,0,219.5,0,359,0    c-0.2,0.8-0.3,1.6-0.6,2.3c-8.2,23.7-16.4,47.5-24.5,71.3c-0.6,1.8-1.5,2.2-3.2,2.2c-118.5,0-177.6,0-296.1,0    C250.5,132.3,249.7,132.3,248.7,132.3z"
   id="path24" />
		<path
   class="st0"
   d="M247.1,133.3c0,58.6-47.9,106.6-106.5,106.7c-58.6,0.1-106.8-48.1-106.7-106.7    C33.9,74.6,81.9,26.7,140.5,26.7C199.1,26.8,247,74.7,247.1,133.3z M239.2,133.3c0-53.6-42.8-98.6-98.6-98.8    C86,34.4,41.8,78.3,41.7,133.3c-0.1,54.6,44.4,99,98.8,98.8C195.2,231.8,239.2,187.8,239.2,133.3z"
   id="path26" />
	</g>
</g>
<g
   id="g44"
   style="filter:url(#filter263)">
	<path
   d="M292.1,109.2v14.9h-12.8V76.7c4.5-0.7,9.4-1,14.4-1c14.9,0,22.3,5.4,22.3,16.1c0,5.8-1.7,10.2-5,13.2   c-3.3,3-8.2,4.5-14.6,4.5C294.6,109.4,293.2,109.4,292.1,109.2z M292.1,99.7c0.9,0.1,1.9,0.2,2.9,0.2c2.8,0,5-0.7,6.6-2   c1.5-1.3,2.3-3.2,2.3-5.6c0-4.6-2.9-6.9-8.8-6.9c-1,0-1.9,0.1-2.9,0.3V99.7z"
   id="path32" />
	<path
   d="M322.9,124.2V76.3h14.4v47.9H322.9z"
   id="path34" />
	<path
   d="M360.4,107.5v16.7h-12.8V76.7c5.7-0.7,11.4-1,17-1c13.1,0,19.7,4.9,19.7,14.7c0,2.8-0.9,5.3-2.6,7.7s-3.9,4-6.6,5v0.1   c1.3,0.7,2.4,1.7,3.3,2.9c0.9,1.2,1.7,2.8,2.5,4.9l4.7,13.1h-13.4l-4.1-12.5c-0.5-1.5-1.1-2.6-1.8-3.3c-0.7-0.7-1.7-1-2.9-1H360.4z    M360.4,98h3.6c2.2,0,4-0.6,5.3-1.7s1.9-2.6,1.9-4.6c0-4.2-2.4-6.2-7.2-6.2c-1.4,0-2.6,0.1-3.6,0.3V98z"
   id="path36" />
	<path
   d="M405.1,115l-2.2,9.2h-13.6L405,76.3h13.8l15.7,47.9h-13.9l-2.2-9.2H405.1z M414.5,72.4H404l6.6-11.8H425L414.5,72.4z    M407.4,105.2h8.7l-4.3-17.7h-0.1L407.4,105.2z"
   id="path38" />
	<path
   d="M471.9,76.3v10.8h-13v37h-13.4v-37h-13V76.3H471.9z"
   id="path40" />
	<path
   d="M480.5,124.2V76.3h14.4v47.9H480.5z"
   id="path42" />
</g>
<g
   id="g54"
   style="filter:url(#filter267)">
	<path
   class="st0"
   d="M298.5,196c-7.7,0-13.9-2.2-18.6-6.6c-4.7-4.4-7-10.4-7-18c0-7.7,2.2-13.7,6.7-18.1c4.5-4.3,10.8-6.5,18.8-6.5   c6.2,0,11.4,1.5,15.7,4.6l-3.6,9.5c-3.6-2.4-7.2-3.6-10.8-3.6c-4.2,0-7.5,1.2-9.9,3.6c-2.4,2.4-3.5,5.9-3.5,10.5   c0,4.4,1.2,7.8,3.7,10.3c2.5,2.5,5.7,3.8,9.7,3.8c3.6,0,7.2-1.2,10.8-3.6l3.6,9.5C309.9,194.5,304.7,196,298.5,196z"
   id="path46" />
	<path
   class="st0"
   d="M349.4,175.7h-13.8v19.7h-13.1v-47.9h13.1v18.4h13.8v-18.4h13.1v47.9h-13.1V175.7z"
   id="path48" />
	<path
   class="st0"
   d="M402.2,165.9v9.8h-17v9.2h18.4v10.5h-31.5v-47.9h31.5V158h-18.4v7.9H402.2z"
   id="path50" />
	<path
   class="st0"
   d="M447.9,181.6c0,4.9-1.6,8.6-4.8,10.9c-3.2,2.3-8.4,3.5-15.5,3.5c-5.3,0-10.4-0.3-15.1-1v-47.2   c4.5-0.7,9.4-1,14.4-1c13.1,0,19.7,4.2,19.7,12.5c0,2.8-0.9,5.2-2.7,7.1c-1.8,1.9-4.2,3.2-7.1,3.6v0.1c3.4,0.4,6.1,1.7,8.1,3.9   C446.9,176.2,447.9,178.7,447.9,181.6z M428.2,156.7c-1,0-1.9,0.1-3,0.3v9.2h2c5,0,7.5-1.6,7.5-4.9   C434.8,158.2,432.6,156.7,428.2,156.7z M435.7,180.3c0-3.3-2.4-4.9-7.2-4.9h-3.3v10.5c1,0.2,2,0.3,3,0.3c2.6,0,4.5-0.5,5.7-1.4   C435.1,183.8,435.7,182.3,435.7,180.3z"
   id="path52" />
</g>
<g
   id="g248"
   style="filter:url(#filter271)">
	<g
   id="g86">
		<path
   d="M140.3,232.7c-52.9,0.4-98.2-43-98.3-98.2C42,80.4,86.2,35,142.5,36c53.8,1,97.6,45.7,96.3,100.8    C237.6,190.6,193,233.2,140.3,232.7z M176.8,154.7c0.5,0.4,0.4,0.9,0.4,1.4c0.1,2.7,0.2,5.4,0.2,8c0.1,11,0.3,22,0.4,33    c0.1,5.4,0.1,10.7,0.2,16.1c0,0.5-0.2,1.2,0.3,1.6c37.9-17.1,61.5-62.3,47-107.5c-14.9-46.6-59.6-65.3-91.4-61.5    c0,2.3,0,4.6,0,7.1c4.6-0.7,9-1.4,13.5-1.4c7.3-0.1,14.5,0.3,21.5,2.6c12.6,4.3,19,12.9,19.3,26.2c0.1,5.2-1.7,9.4-5.8,12.7    c-2.6,2-5.4,3.4-8.4,4.5c-6.3,2.3-12.9,3.4-19.4,4.7c-4.6,0.9-9.2,1.6-13.6,3.2c-4.7,1.7-8.2,4.8-10.2,9.4    c-1.5,3.7-1.9,7.5-1.4,11.5c0.1,0.7,0.4,1.4,0,2.3c-0.9-1.8-1.4-3.5-1.8-5.3c-1.3-5.6-2-11.2,0.3-16.8c0.3-0.7,0.2-1.5,0.2-2.3    c0-15,0-30,0-45c0-0.7,0.2-1.4-0.4-2.1c-1.4-0.2-2.9,0-4.7,0.2c1.5-1.8,3.5-1.8,5.1-2.9c-0.1-2.5,0.2-5.1-0.2-7.7    C97.1,49.7,59,75.7,52.3,121.8c-5.9,40.3,16.7,76.2,46,90.7c0.1-20.5,1-41,0.4-61.7c1.3-1,2.5-2.5,4.3-3.2c1.4,0.9,2,2.3,3.1,3.3    l0.1,0.1c-0.4,1-1.3,1.3-2.2,1.6c0.2-0.6,1-0.7,1.1-1.5c-0.6-0.6-0.9-1.5-1.9-1.8c-0.4,0.8-0.2,1.5-0.1,2.2    c-0.7-0.5,0.1-1.6-0.9-2c-1,0.7-1.9,1.4-2.7,2.3c0,2.6,0,5.1,0,7.6c0.1,2.5-0.2,5.1,0.2,7.8c11.9-6,22.8-11.8,34.9-17.9    c-0.3,8.6-0.4,16.8-0.5,25c-0.1,8.1-0.5,16.3-0.5,24.4c0.1,8.1-0.1,16.2,0.6,24.3c0.8-6.1,1.2-11.9,1.3-18    c0.1-6.1,0.4-12.3,0.5-18.4c0.1-6.1,0.1-12.3,0.3-18.4c0.3-6.1,0.2-12.2,0.3-18.5c13.8,6.3,26.5,12.4,40.3,18.6    C176.7,163.4,177.2,159,176.8,154.7L176.8,154.7z M133.9,57.9c-0.3,3.4-0.3,39.7,0.1,41.8c3.4-2,6.6-4.1,9.6-6.6    c7.8-6.3,7.8-18,4.8-24.2C145.4,62.8,140.3,59.7,133.9,57.9z"
   id="path56" />
		<path
   d="M176.9,154.6c-0.4-0.6-0.6-1.3-1.4-1.8c-6.6-4-13.2-8.1-19.8-12.2c-0.2-0.1-0.5-0.1-0.9-0.3c-0.4,1.5-0.3,3,0.1,4.5    c-1.8-0.3-8.1-3.9-14.1-8c0.3-1.6,0.3-3.3,0.2-5.1c-1.9-1.4-4-2.6-6.2-3.8c-1.9,1.3-3.3,2.8-4.9,4.2c-0.5,1.2-0.3,2.3,0.2,3.4    c-1.3,1.3-2.9,2.2-4.4,3.2c-1.5,1-3,2-4.3,3c-1.1-0.3-0.1-1.3-1.2-1.5c-0.6,0.2-1.1,0.6-1.6,1.4c-0.3,1.4,0,2.9,0,4.4    c0,0.7,0.5,1.6-0.6,2l0,0c-0.2-2.5,0.6-5-0.1-7.6c1-0.7,1.9-1.5,2.8-2.1c1,0,1.3,1,2.2,1.3c2-1.4,4-2.8,6-4.1    c0.3-1.3,0-2.4-0.4-3.4c0.5-0.6,1-1.2,1.5-1.7l-0.1,0.1c1.5-1.2,2.9-2.4,4.6-3.8c2.5,1.5,5,3.1,7.7,4.8c-1.4,1.7-0.5,3.5-0.8,5.2    c3,1.8,5.9,3.6,8.9,5.4c1.4-1.1,2.7-2.2,4.2-3.3c7.8,4.9,15.5,9.7,23.3,14.5C177.6,153.8,176.5,153.8,176.9,154.6L176.9,154.6z     M121.5,139.6c-0.1,0.1-0.2,0.3-0.2,0.4c0,0.2,0.2,0.2,0.3,0C121.8,139.9,121.7,139.7,121.5,139.6z"
   id="path58" />
		<path
   d="M156.6,146.2c4.7-0.2,7.5,2.1,9.9,5.5c0.1,1.4,0.2,2.8-0.2,4.5c-3.4-1.4-6.4-3.3-9.6-4.9    C156.3,149.7,156.7,148.1,156.6,146.2z"
   id="path60" />
		<path
   d="M171.1,155c0.8,0.5,1.4,0.9,1.9,1.2c0.3,0.8,0.2,1.4,0.1,2.1c-1,0-1.6-0.7-2.3-1.1C170.5,156.5,170.7,155.9,171.1,155z"
   id="path62" />
		<path
   d="M115.3,149.8c-2,0.7-3.7,0.5-4.6,0.1C113,149.6,114.4,149.8,115.3,149.8L115.3,149.8z"
   id="path64" />
		<path
   d="M103,151.4c0.4,0.3,0.4,1,1.1,1.1c0,0.5-0.4,0.7-0.8,0.8C102.6,152.7,103.3,152,103,151.4z"
   id="path66" />
		<path
   d="M109.3,150c0.4-1.1,1.1-0.5,1.8-0.4C110.6,150.2,109.9,149.7,109.3,150L109.3,150z"
   id="path68" />
		<path
   d="M107.2,150.5c0.5-1.2,1,0,1.5,0l0,0C108.2,151.5,107.7,150.4,107.2,150.5L107.2,150.5z"
   id="path70" />
		<path
   d="M130.1,130.1c-0.4-0.1-0.5-0.2-0.3-0.6C129.9,129.7,130,129.9,130.1,130.1L130.1,130.1z"
   id="path72" />
		<path
   d="M117.6,148.3c-0.2,0.4-0.6,0.5-1,0.5l0.1,0.1C116.7,148.3,117.2,148.3,117.6,148.3L117.6,148.3z"
   id="path74" />
		<path
   d="M116.5,148.8c-0.2,0.6-0.6,0.6-1.1,0.5l0.1,0.1C115.7,148.9,116.1,148.8,116.5,148.8L116.5,148.8z"
   id="path76" />
		<path
   d="M106.1,150.9c0.2-0.5,0.6-0.6,1.1-0.4l0-0.1C107,150.9,106.6,151,106.1,150.9L106.1,150.9z"
   id="path78" />
		<path
   d="M118.1,147.8c0.1,0.4-0.2,0.5-0.5,0.5l0.1,0.1C117.4,147.9,117.8,147.9,118.1,147.8L118.1,147.8z"
   id="path80" />
		<path
   d="M115.1,150c-0.2-0.5,0.1-0.5,0.4-0.6l-0.1-0.1C115.7,149.8,115.3,149.8,115.1,150L115.1,150z"
   id="path82" />
		<path
   d="M109.3,149.9c0,0.3-0.2,0.5-0.5,0.5l0,0C108.7,150,108.9,149.8,109.3,149.9L109.3,149.9z"
   id="path84" />
	</g>
	<g
   id="g118">
		<path
   class="st1"
   d="M140.3,232.7c-52.9,0.4-98.2-43-98.3-98.2C42,80.4,86.2,35,142.5,36c53.8,1,97.6,45.7,96.3,100.8    C237.6,190.6,193,233.2,140.3,232.7z M176.8,154.7c0.5,0.4,0.4,0.9,0.4,1.4c0.1,2.7,0.2,5.4,0.2,8c0.1,11,0.3,22,0.4,33    c0.1,5.4,0.1,10.7,0.2,16.1c0,0.5-0.2,1.2,0.3,1.6c37.9-17.1,61.5-62.3,47-107.5c-14.9-46.6-59.6-65.3-91.4-61.5    c0,2.3,0,4.6,0,7.1c4.6-0.7,9-1.4,13.5-1.4c7.3-0.1,14.5,0.3,21.5,2.6c12.6,4.3,19,12.9,19.3,26.2c0.1,5.2-1.7,9.4-5.8,12.7    c-2.6,2-5.4,3.4-8.4,4.5c-6.3,2.3-12.9,3.4-19.4,4.7c-4.6,0.9-9.2,1.6-13.6,3.2c-4.7,1.7-8.2,4.8-10.2,9.4    c-1.5,3.7-1.9,7.5-1.4,11.5c0.1,0.7,0.4,1.4,0,2.3c-0.9-1.8-1.4-3.5-1.8-5.3c-1.3-5.6-2-11.2,0.3-16.8c0.3-0.7,0.2-1.5,0.2-2.3    c0-15,0-30,0-45c0-0.7,0.2-1.4-0.4-2.1c-1.4-0.2-2.9,0-4.7,0.2c1.5-1.8,3.5-1.8,5.1-2.9c-0.1-2.5,0.2-5.1-0.2-7.7    C97.1,49.7,59,75.7,52.3,121.8c-5.9,40.3,16.7,76.2,46,90.7c0.1-20.5,1-41,0.4-61.7c1.3-1,2.5-2.5,4.3-3.2c1.4,0.9,2,2.3,3.1,3.3    l0.1,0.1c-0.4,1-1.3,1.3-2.2,1.6c0.2-0.6,1-0.7,1.1-1.5c-0.6-0.6-0.9-1.5-1.9-1.8c-0.4,0.8-0.2,1.5-0.1,2.2    c-0.7-0.5,0.1-1.6-0.9-2c-1,0.7-1.9,1.4-2.7,2.3c0,2.6,0,5.1,0,7.6c0.1,2.5-0.2,5.1,0.2,7.8c11.9-6,22.8-11.8,34.9-17.9    c-0.3,8.6-0.4,16.8-0.5,25c-0.1,8.1-0.5,16.3-0.5,24.4c0.1,8.1-0.1,16.2,0.6,24.3c0.8-6.1,1.2-11.9,1.3-18    c0.1-6.1,0.4-12.3,0.5-18.4c0.1-6.1,0.1-12.3,0.3-18.4c0.3-6.1,0.2-12.2,0.3-18.5c13.8,6.3,26.5,12.4,40.3,18.6    C176.7,163.4,177.2,159,176.8,154.7L176.8,154.7z M133.9,57.9c-0.3,3.4-0.3,39.7,0.1,41.8c3.4-2,6.6-4.1,9.6-6.6    c7.8-6.3,7.8-18,4.8-24.2C145.4,62.8,140.3,59.7,133.9,57.9z"
   id="path88" />
		<path
   class="st1"
   d="M176.9,154.6c-0.4-0.6-0.6-1.3-1.4-1.8c-6.6-4-13.2-8.1-19.8-12.2c-0.2-0.1-0.5-0.1-0.9-0.3    c-0.4,1.5-0.3,3,0.1,4.5c-1.8-0.3-8.1-3.9-14.1-8c0.3-1.6,0.3-3.3,0.2-5.1c-1.9-1.4-4-2.6-6.2-3.8c-1.9,1.3-3.3,2.8-4.9,4.2    c-0.5,1.2-0.3,2.3,0.2,3.4c-1.3,1.3-2.9,2.2-4.4,3.2c-1.5,1-3,2-4.3,3c-1.1-0.3-0.1-1.3-1.2-1.5c-0.6,0.2-1.1,0.6-1.6,1.4    c-0.3,1.4,0,2.9,0,4.4c0,0.7,0.5,1.6-0.6,2l0,0c-0.2-2.5,0.6-5-0.1-7.6c1-0.7,1.9-1.5,2.8-2.1c1,0,1.3,1,2.2,1.3    c2-1.4,4-2.8,6-4.1c0.3-1.3,0-2.4-0.4-3.4c0.5-0.6,1-1.2,1.5-1.7l-0.1,0.1c1.5-1.2,2.9-2.4,4.6-3.8c2.5,1.5,5,3.1,7.7,4.8    c-1.4,1.7-0.5,3.5-0.8,5.2c3,1.8,5.9,3.6,8.9,5.4c1.4-1.1,2.7-2.2,4.2-3.3c7.8,4.9,15.5,9.7,23.3,14.5    C177.6,153.8,176.5,153.8,176.9,154.6L176.9,154.6z M121.5,139.6c-0.1,0.1-0.2,0.3-0.2,0.4c0,0.2,0.2,0.2,0.3,0    C121.8,139.9,121.7,139.7,121.5,139.6z"
   id="path90" />
		<path
   class="st1"
   d="M156.6,146.2c4.7-0.2,7.5,2.1,9.9,5.5c0.1,1.4,0.2,2.8-0.2,4.5c-3.4-1.4-6.4-3.3-9.6-4.9    C156.3,149.7,156.7,148.1,156.6,146.2z"
   id="path92" />
		<path
   class="st1"
   d="M171.1,155c0.8,0.5,1.4,0.9,1.9,1.2c0.3,0.8,0.2,1.4,0.1,2.1c-1,0-1.6-0.7-2.3-1.1    C170.5,156.5,170.7,155.9,171.1,155z"
   id="path94" />
		<path
   class="st1"
   d="M115.3,149.8c-2,0.7-3.7,0.5-4.6,0.1C113,149.6,114.4,149.8,115.3,149.8L115.3,149.8z"
   id="path96" />
		<path
   class="st1"
   d="M103,151.4c0.4,0.3,0.4,1,1.1,1.1c0,0.5-0.4,0.7-0.8,0.8C102.6,152.7,103.3,152,103,151.4z"
   id="path98" />
		<path
   class="st1"
   d="M109.3,150c0.4-1.1,1.1-0.5,1.8-0.4C110.6,150.2,109.9,149.7,109.3,150L109.3,150z"
   id="path100" />
		<path
   class="st1"
   d="M107.2,150.5c0.5-1.2,1,0,1.5,0l0,0C108.2,151.5,107.7,150.4,107.2,150.5L107.2,150.5z"
   id="path102" />
		<path
   class="st1"
   d="M130.1,130.1c-0.4-0.1-0.5-0.2-0.3-0.6C129.9,129.7,130,129.9,130.1,130.1L130.1,130.1z"
   id="path104" />
		<path
   class="st1"
   d="M117.6,148.3c-0.2,0.4-0.6,0.5-1,0.5l0.1,0.1C116.7,148.3,117.2,148.3,117.6,148.3L117.6,148.3z"
   id="path106" />
		<path
   class="st1"
   d="M116.5,148.8c-0.2,0.6-0.6,0.6-1.1,0.5l0.1,0.1C115.7,148.9,116.1,148.8,116.5,148.8L116.5,148.8z"
   id="path108" />
		<path
   class="st1"
   d="M106.1,150.9c0.2-0.5,0.6-0.6,1.1-0.4l0-0.1C107,150.9,106.6,151,106.1,150.9L106.1,150.9z"
   id="path110" />
		<path
   class="st1"
   d="M118.1,147.8c0.1,0.4-0.2,0.5-0.5,0.5l0.1,0.1C117.4,147.9,117.8,147.9,118.1,147.8L118.1,147.8z"
   id="path112" />
		<path
   class="st1"
   d="M115.1,150c-0.2-0.5,0.1-0.5,0.4-0.6l-0.1-0.1C115.7,149.8,115.3,149.8,115.1,150L115.1,150z"
   id="path114" />
		<path
   class="st1"
   d="M109.3,149.9c0,0.3-0.2,0.5-0.5,0.5l0,0C108.7,150,108.9,149.8,109.3,149.9L109.3,149.9z"
   id="path116" />
	</g>
	<g
   id="g150">
		<path
   class="st1"
   d="M140.3,232.7c-52.9,0.4-98.2-43-98.3-98.2C42,80.4,86.2,35,142.5,36c53.8,1,97.6,45.7,96.3,100.8    C237.6,190.6,193,233.2,140.3,232.7z M176.8,154.7c0.5,0.4,0.4,0.9,0.4,1.4c0.1,2.7,0.2,5.4,0.2,8c0.1,11,0.3,22,0.4,33    c0.1,5.4,0.1,10.7,0.2,16.1c0,0.5-0.2,1.2,0.3,1.6c37.9-17.1,61.5-62.3,47-107.5c-14.9-46.6-59.6-65.3-91.4-61.5    c0,2.3,0,4.6,0,7.1c4.6-0.7,9-1.4,13.5-1.4c7.3-0.1,14.5,0.3,21.5,2.6c12.6,4.3,19,12.9,19.3,26.2c0.1,5.2-1.7,9.4-5.8,12.7    c-2.6,2-5.4,3.4-8.4,4.5c-6.3,2.3-12.9,3.4-19.4,4.7c-4.6,0.9-9.2,1.6-13.6,3.2c-4.7,1.7-8.2,4.8-10.2,9.4    c-1.5,3.7-1.9,7.5-1.4,11.5c0.1,0.7,0.4,1.4,0,2.3c-0.9-1.8-1.4-3.5-1.8-5.3c-1.3-5.6-2-11.2,0.3-16.8c0.3-0.7,0.2-1.5,0.2-2.3    c0-15,0-30,0-45c0-0.7,0.2-1.4-0.4-2.1c-1.4-0.2-2.9,0-4.7,0.2c1.5-1.8,3.5-1.8,5.1-2.9c-0.1-2.5,0.2-5.1-0.2-7.7    C97.1,49.7,59,75.7,52.3,121.8c-5.9,40.3,16.7,76.2,46,90.7c0.1-20.5,1-41,0.4-61.7c1.3-1,2.5-2.5,4.3-3.2c1.4,0.9,2,2.3,3.1,3.3    l0.1,0.1c-0.4,1-1.3,1.3-2.2,1.6c0.2-0.6,1-0.7,1.1-1.5c-0.6-0.6-0.9-1.5-1.9-1.8c-0.4,0.8-0.2,1.5-0.1,2.2    c-0.7-0.5,0.1-1.6-0.9-2c-1,0.7-1.9,1.4-2.7,2.3c0,2.6,0,5.1,0,7.6c0.1,2.5-0.2,5.1,0.2,7.8c11.9-6,22.8-11.8,34.9-17.9    c-0.3,8.6-0.4,16.8-0.5,25c-0.1,8.1-0.5,16.3-0.5,24.4c0.1,8.1-0.1,16.2,0.6,24.3c0.8-6.1,1.2-11.9,1.3-18    c0.1-6.1,0.4-12.3,0.5-18.4c0.1-6.1,0.1-12.3,0.3-18.4c0.3-6.1,0.2-12.2,0.3-18.5c13.8,6.3,26.5,12.4,40.3,18.6    C176.7,163.4,177.2,159,176.8,154.7L176.8,154.7z M133.9,57.9c-0.3,3.4-0.3,39.7,0.1,41.8c3.4-2,6.6-4.1,9.6-6.6    c7.8-6.3,7.8-18,4.8-24.2C145.4,62.8,140.3,59.7,133.9,57.9z"
   id="path120" />
		<path
   class="st1"
   d="M176.9,154.6c-0.4-0.6-0.6-1.3-1.4-1.8c-6.6-4-13.2-8.1-19.8-12.2c-0.2-0.1-0.5-0.1-0.9-0.3    c-0.4,1.5-0.3,3,0.1,4.5c-1.8-0.3-8.1-3.9-14.1-8c0.3-1.6,0.3-3.3,0.2-5.1c-1.9-1.4-4-2.6-6.2-3.8c-1.9,1.3-3.3,2.8-4.9,4.2    c-0.5,1.2-0.3,2.3,0.2,3.4c-1.3,1.3-2.9,2.2-4.4,3.2c-1.5,1-3,2-4.3,3c-1.1-0.3-0.1-1.3-1.2-1.5c-0.6,0.2-1.1,0.6-1.6,1.4    c-0.3,1.4,0,2.9,0,4.4c0,0.7,0.5,1.6-0.6,2l0,0c-0.2-2.5,0.6-5-0.1-7.6c1-0.7,1.9-1.5,2.8-2.1c1,0,1.3,1,2.2,1.3    c2-1.4,4-2.8,6-4.1c0.3-1.3,0-2.4-0.4-3.4c0.5-0.6,1-1.2,1.5-1.7l-0.1,0.1c1.5-1.2,2.9-2.4,4.6-3.8c2.5,1.5,5,3.1,7.7,4.8    c-1.4,1.7-0.5,3.5-0.8,5.2c3,1.8,5.9,3.6,8.9,5.4c1.4-1.1,2.7-2.2,4.2-3.3c7.8,4.9,15.5,9.7,23.3,14.5    C177.6,153.8,176.5,153.8,176.9,154.6L176.9,154.6z M121.5,139.6c-0.1,0.1-0.2,0.3-0.2,0.4c0,0.2,0.2,0.2,0.3,0    C121.8,139.9,121.7,139.7,121.5,139.6z"
   id="path122" />
		<path
   class="st1"
   d="M156.6,146.2c4.7-0.2,7.5,2.1,9.9,5.5c0.1,1.4,0.2,2.8-0.2,4.5c-3.4-1.4-6.4-3.3-9.6-4.9    C156.3,149.7,156.7,148.1,156.6,146.2z"
   id="path124" />
		<path
   class="st1"
   d="M171.1,155c0.8,0.5,1.4,0.9,1.9,1.2c0.3,0.8,0.2,1.4,0.1,2.1c-1,0-1.6-0.7-2.3-1.1    C170.5,156.5,170.7,155.9,171.1,155z"
   id="path126" />
		<path
   class="st1"
   d="M115.3,149.8c-2,0.7-3.7,0.5-4.6,0.1C113,149.6,114.4,149.8,115.3,149.8L115.3,149.8z"
   id="path128" />
		<path
   class="st1"
   d="M103,151.4c0.4,0.3,0.4,1,1.1,1.1c0,0.5-0.4,0.7-0.8,0.8C102.6,152.7,103.3,152,103,151.4z"
   id="path130" />
		<path
   class="st1"
   d="M109.3,150c0.4-1.1,1.1-0.5,1.8-0.4C110.6,150.2,109.9,149.7,109.3,150L109.3,150z"
   id="path132" />
		<path
   class="st1"
   d="M107.2,150.5c0.5-1.2,1,0,1.5,0l0,0C108.2,151.5,107.7,150.4,107.2,150.5L107.2,150.5z"
   id="path134" />
		<path
   class="st1"
   d="M130.1,130.1c-0.4-0.1-0.5-0.2-0.3-0.6C129.9,129.7,130,129.9,130.1,130.1L130.1,130.1z"
   id="path136" />
		<path
   class="st1"
   d="M117.6,148.3c-0.2,0.4-0.6,0.5-1,0.5l0.1,0.1C116.7,148.3,117.2,148.3,117.6,148.3L117.6,148.3z"
   id="path138" />
		<path
   class="st1"
   d="M116.5,148.8c-0.2,0.6-0.6,0.6-1.1,0.5l0.1,0.1C115.7,148.9,116.1,148.8,116.5,148.8L116.5,148.8z"
   id="path140" />
		<path
   class="st1"
   d="M106.1,150.9c0.2-0.5,0.6-0.6,1.1-0.4l0-0.1C107,150.9,106.6,151,106.1,150.9L106.1,150.9z"
   id="path142" />
		<path
   class="st1"
   d="M118.1,147.8c0.1,0.4-0.2,0.5-0.5,0.5l0.1,0.1C117.4,147.9,117.8,147.9,118.1,147.8L118.1,147.8z"
   id="path144" />
		<path
   class="st1"
   d="M115.1,150c-0.2-0.5,0.1-0.5,0.4-0.6l-0.1-0.1C115.7,149.8,115.3,149.8,115.1,150L115.1,150z"
   id="path146" />
		<path
   class="st1"
   d="M109.3,149.9c0,0.3-0.2,0.5-0.5,0.5l0,0C108.7,150,108.9,149.8,109.3,149.9L109.3,149.9z"
   id="path148" />
	</g>
	<g
   id="g182">
		<path
   class="st1"
   d="M140.3,232.7c-52.9,0.4-98.2-43-98.3-98.2C42,80.4,86.2,35,142.5,36c53.8,1,97.6,45.7,96.3,100.8    C237.6,190.6,193,233.2,140.3,232.7z M176.8,154.7c0.5,0.4,0.4,0.9,0.4,1.4c0.1,2.7,0.2,5.4,0.2,8c0.1,11,0.3,22,0.4,33    c0.1,5.4,0.1,10.7,0.2,16.1c0,0.5-0.2,1.2,0.3,1.6c37.9-17.1,61.5-62.3,47-107.5c-14.9-46.6-59.6-65.3-91.4-61.5    c0,2.3,0,4.6,0,7.1c4.6-0.7,9-1.4,13.5-1.4c7.3-0.1,14.5,0.3,21.5,2.6c12.6,4.3,19,12.9,19.3,26.2c0.1,5.2-1.7,9.4-5.8,12.7    c-2.6,2-5.4,3.4-8.4,4.5c-6.3,2.3-12.9,3.4-19.4,4.7c-4.6,0.9-9.2,1.6-13.6,3.2c-4.7,1.7-8.2,4.8-10.2,9.4    c-1.5,3.7-1.9,7.5-1.4,11.5c0.1,0.7,0.4,1.4,0,2.3c-0.9-1.8-1.4-3.5-1.8-5.3c-1.3-5.6-2-11.2,0.3-16.8c0.3-0.7,0.2-1.5,0.2-2.3    c0-15,0-30,0-45c0-0.7,0.2-1.4-0.4-2.1c-1.4-0.2-2.9,0-4.7,0.2c1.5-1.8,3.5-1.8,5.1-2.9c-0.1-2.5,0.2-5.1-0.2-7.7    C97.1,49.7,59,75.7,52.3,121.8c-5.9,40.3,16.7,76.2,46,90.7c0.1-20.5,1-41,0.4-61.7c1.3-1,2.5-2.5,4.3-3.2c1.4,0.9,2,2.3,3.1,3.3    l0.1,0.1c-0.4,1-1.3,1.3-2.2,1.6c0.2-0.6,1-0.7,1.1-1.5c-0.6-0.6-0.9-1.5-1.9-1.8c-0.4,0.8-0.2,1.5-0.1,2.2    c-0.7-0.5,0.1-1.6-0.9-2c-1,0.7-1.9,1.4-2.7,2.3c0,2.6,0,5.1,0,7.6c0.1,2.5-0.2,5.1,0.2,7.8c11.9-6,22.8-11.8,34.9-17.9    c-0.3,8.6-0.4,16.8-0.5,25c-0.1,8.1-0.5,16.3-0.5,24.4c0.1,8.1-0.1,16.2,0.6,24.3c0.8-6.1,1.2-11.9,1.3-18    c0.1-6.1,0.4-12.3,0.5-18.4c0.1-6.1,0.1-12.3,0.3-18.4c0.3-6.1,0.2-12.2,0.3-18.5c13.8,6.3,26.5,12.4,40.3,18.6    C176.7,163.4,177.2,159,176.8,154.7L176.8,154.7z M133.9,57.9c-0.3,3.4-0.3,39.7,0.1,41.8c3.4-2,6.6-4.1,9.6-6.6    c7.8-6.3,7.8-18,4.8-24.2C145.4,62.8,140.3,59.7,133.9,57.9z"
   id="path152" />
		<path
   class="st1"
   d="M176.9,154.6c-0.4-0.6-0.6-1.3-1.4-1.8c-6.6-4-13.2-8.1-19.8-12.2c-0.2-0.1-0.5-0.1-0.9-0.3    c-0.4,1.5-0.3,3,0.1,4.5c-1.8-0.3-8.1-3.9-14.1-8c0.3-1.6,0.3-3.3,0.2-5.1c-1.9-1.4-4-2.6-6.2-3.8c-1.9,1.3-3.3,2.8-4.9,4.2    c-0.5,1.2-0.3,2.3,0.2,3.4c-1.3,1.3-2.9,2.2-4.4,3.2c-1.5,1-3,2-4.3,3c-1.1-0.3-0.1-1.3-1.2-1.5c-0.6,0.2-1.1,0.6-1.6,1.4    c-0.3,1.4,0,2.9,0,4.4c0,0.7,0.5,1.6-0.6,2l0,0c-0.2-2.5,0.6-5-0.1-7.6c1-0.7,1.9-1.5,2.8-2.1c1,0,1.3,1,2.2,1.3    c2-1.4,4-2.8,6-4.1c0.3-1.3,0-2.4-0.4-3.4c0.5-0.6,1-1.2,1.5-1.7l-0.1,0.1c1.5-1.2,2.9-2.4,4.6-3.8c2.5,1.5,5,3.1,7.7,4.8    c-1.4,1.7-0.5,3.5-0.8,5.2c3,1.8,5.9,3.6,8.9,5.4c1.4-1.1,2.7-2.2,4.2-3.3c7.8,4.9,15.5,9.7,23.3,14.5    C177.6,153.8,176.5,153.8,176.9,154.6L176.9,154.6z M121.5,139.6c-0.1,0.1-0.2,0.3-0.2,0.4c0,0.2,0.2,0.2,0.3,0    C121.8,139.9,121.7,139.7,121.5,139.6z"
   id="path154" />
		<path
   class="st1"
   d="M156.6,146.2c4.7-0.2,7.5,2.1,9.9,5.5c0.1,1.4,0.2,2.8-0.2,4.5c-3.4-1.4-6.4-3.3-9.6-4.9    C156.3,149.7,156.7,148.1,156.6,146.2z"
   id="path156" />
		<path
   class="st1"
   d="M171.1,155c0.8,0.5,1.4,0.9,1.9,1.2c0.3,0.8,0.2,1.4,0.1,2.1c-1,0-1.6-0.7-2.3-1.1    C170.5,156.5,170.7,155.9,171.1,155z"
   id="path158" />
		<path
   class="st1"
   d="M115.3,149.8c-2,0.7-3.7,0.5-4.6,0.1C113,149.6,114.4,149.8,115.3,149.8L115.3,149.8z"
   id="path160" />
		<path
   class="st1"
   d="M103,151.4c0.4,0.3,0.4,1,1.1,1.1c0,0.5-0.4,0.7-0.8,0.8C102.6,152.7,103.3,152,103,151.4z"
   id="path162" />
		<path
   class="st1"
   d="M109.3,150c0.4-1.1,1.1-0.5,1.8-0.4C110.6,150.2,109.9,149.7,109.3,150L109.3,150z"
   id="path164" />
		<path
   class="st1"
   d="M107.2,150.5c0.5-1.2,1,0,1.5,0l0,0C108.2,151.5,107.7,150.4,107.2,150.5L107.2,150.5z"
   id="path166" />
		<path
   class="st1"
   d="M130.1,130.1c-0.4-0.1-0.5-0.2-0.3-0.6C129.9,129.7,130,129.9,130.1,130.1L130.1,130.1z"
   id="path168" />
		<path
   class="st1"
   d="M117.6,148.3c-0.2,0.4-0.6,0.5-1,0.5l0.1,0.1C116.7,148.3,117.2,148.3,117.6,148.3L117.6,148.3z"
   id="path170" />
		<path
   class="st1"
   d="M116.5,148.8c-0.2,0.6-0.6,0.6-1.1,0.5l0.1,0.1C115.7,148.9,116.1,148.8,116.5,148.8L116.5,148.8z"
   id="path172" />
		<path
   class="st1"
   d="M106.1,150.9c0.2-0.5,0.6-0.6,1.1-0.4l0-0.1C107,150.9,106.6,151,106.1,150.9L106.1,150.9z"
   id="path174" />
		<path
   class="st1"
   d="M118.1,147.8c0.1,0.4-0.2,0.5-0.5,0.5l0.1,0.1C117.4,147.9,117.8,147.9,118.1,147.8L118.1,147.8z"
   id="path176" />
		<path
   class="st1"
   d="M115.1,150c-0.2-0.5,0.1-0.5,0.4-0.6l-0.1-0.1C115.7,149.8,115.3,149.8,115.1,150L115.1,150z"
   id="path178" />
		<path
   class="st1"
   d="M109.3,149.9c0,0.3-0.2,0.5-0.5,0.5l0,0C108.7,150,108.9,149.8,109.3,149.9L109.3,149.9z"
   id="path180" />
	</g>
	<g
   id="g214">
		<path
   class="st1"
   d="M140.3,232.7c-52.9,0.4-98.2-43-98.3-98.2C42,80.4,86.2,35,142.5,36c53.8,1,97.6,45.7,96.3,100.8    C237.6,190.6,193,233.2,140.3,232.7z M176.8,154.7c0.5,0.4,0.4,0.9,0.4,1.4c0.1,2.7,0.2,5.4,0.2,8c0.1,11,0.3,22,0.4,33    c0.1,5.4,0.1,10.7,0.2,16.1c0,0.5-0.2,1.2,0.3,1.6c37.9-17.1,61.5-62.3,47-107.5c-14.9-46.6-59.6-65.3-91.4-61.5    c0,2.3,0,4.6,0,7.1c4.6-0.7,9-1.4,13.5-1.4c7.3-0.1,14.5,0.3,21.5,2.6c12.6,4.3,19,12.9,19.3,26.2c0.1,5.2-1.7,9.4-5.8,12.7    c-2.6,2-5.4,3.4-8.4,4.5c-6.3,2.3-12.9,3.4-19.4,4.7c-4.6,0.9-9.2,1.6-13.6,3.2c-4.7,1.7-8.2,4.8-10.2,9.4    c-1.5,3.7-1.9,7.5-1.4,11.5c0.1,0.7,0.4,1.4,0,2.3c-0.9-1.8-1.4-3.5-1.8-5.3c-1.3-5.6-2-11.2,0.3-16.8c0.3-0.7,0.2-1.5,0.2-2.3    c0-15,0-30,0-45c0-0.7,0.2-1.4-0.4-2.1c-1.4-0.2-2.9,0-4.7,0.2c1.5-1.8,3.5-1.8,5.1-2.9c-0.1-2.5,0.2-5.1-0.2-7.7    C97.1,49.7,59,75.7,52.3,121.8c-5.9,40.3,16.7,76.2,46,90.7c0.1-20.5,1-41,0.4-61.7c1.3-1,2.5-2.5,4.3-3.2c1.4,0.9,2,2.3,3.1,3.3    l0.1,0.1c-0.4,1-1.3,1.3-2.2,1.6c0.2-0.6,1-0.7,1.1-1.5c-0.6-0.6-0.9-1.5-1.9-1.8c-0.4,0.8-0.2,1.5-0.1,2.2    c-0.7-0.5,0.1-1.6-0.9-2c-1,0.7-1.9,1.4-2.7,2.3c0,2.6,0,5.1,0,7.6c0.1,2.5-0.2,5.1,0.2,7.8c11.9-6,22.8-11.8,34.9-17.9    c-0.3,8.6-0.4,16.8-0.5,25c-0.1,8.1-0.5,16.3-0.5,24.4c0.1,8.1-0.1,16.2,0.6,24.3c0.8-6.1,1.2-11.9,1.3-18    c0.1-6.1,0.4-12.3,0.5-18.4c0.1-6.1,0.1-12.3,0.3-18.4c0.3-6.1,0.2-12.2,0.3-18.5c13.8,6.3,26.5,12.4,40.3,18.6    C176.7,163.4,177.2,159,176.8,154.7L176.8,154.7z M133.9,57.9c-0.3,3.4-0.3,39.7,0.1,41.8c3.4-2,6.6-4.1,9.6-6.6    c7.8-6.3,7.8-18,4.8-24.2C145.4,62.8,140.3,59.7,133.9,57.9z"
   id="path184" />
		<path
   class="st1"
   d="M176.9,154.6c-0.4-0.6-0.6-1.3-1.4-1.8c-6.6-4-13.2-8.1-19.8-12.2c-0.2-0.1-0.5-0.1-0.9-0.3    c-0.4,1.5-0.3,3,0.1,4.5c-1.8-0.3-8.1-3.9-14.1-8c0.3-1.6,0.3-3.3,0.2-5.1c-1.9-1.4-4-2.6-6.2-3.8c-1.9,1.3-3.3,2.8-4.9,4.2    c-0.5,1.2-0.3,2.3,0.2,3.4c-1.3,1.3-2.9,2.2-4.4,3.2c-1.5,1-3,2-4.3,3c-1.1-0.3-0.1-1.3-1.2-1.5c-0.6,0.2-1.1,0.6-1.6,1.4    c-0.3,1.4,0,2.9,0,4.4c0,0.7,0.5,1.6-0.6,2l0,0c-0.2-2.5,0.6-5-0.1-7.6c1-0.7,1.9-1.5,2.8-2.1c1,0,1.3,1,2.2,1.3    c2-1.4,4-2.8,6-4.1c0.3-1.3,0-2.4-0.4-3.4c0.5-0.6,1-1.2,1.5-1.7l-0.1,0.1c1.5-1.2,2.9-2.4,4.6-3.8c2.5,1.5,5,3.1,7.7,4.8    c-1.4,1.7-0.5,3.5-0.8,5.2c3,1.8,5.9,3.6,8.9,5.4c1.4-1.1,2.7-2.2,4.2-3.3c7.8,4.9,15.5,9.7,23.3,14.5    C177.6,153.8,176.5,153.8,176.9,154.6L176.9,154.6z M121.5,139.6c-0.1,0.1-0.2,0.3-0.2,0.4c0,0.2,0.2,0.2,0.3,0    C121.8,139.9,121.7,139.7,121.5,139.6z"
   id="path186" />
		<path
   class="st1"
   d="M156.6,146.2c4.7-0.2,7.5,2.1,9.9,5.5c0.1,1.4,0.2,2.8-0.2,4.5c-3.4-1.4-6.4-3.3-9.6-4.9    C156.3,149.7,156.7,148.1,156.6,146.2z"
   id="path188" />
		<path
   class="st1"
   d="M171.1,155c0.8,0.5,1.4,0.9,1.9,1.2c0.3,0.8,0.2,1.4,0.1,2.1c-1,0-1.6-0.7-2.3-1.1    C170.5,156.5,170.7,155.9,171.1,155z"
   id="path190" />
		<path
   class="st1"
   d="M115.3,149.8c-2,0.7-3.7,0.5-4.6,0.1C113,149.6,114.4,149.8,115.3,149.8L115.3,149.8z"
   id="path192" />
		<path
   class="st1"
   d="M103,151.4c0.4,0.3,0.4,1,1.1,1.1c0,0.5-0.4,0.7-0.8,0.8C102.6,152.7,103.3,152,103,151.4z"
   id="path194" />
		<path
   class="st1"
   d="M109.3,150c0.4-1.1,1.1-0.5,1.8-0.4C110.6,150.2,109.9,149.7,109.3,150L109.3,150z"
   id="path196" />
		<path
   class="st1"
   d="M107.2,150.5c0.5-1.2,1,0,1.5,0l0,0C108.2,151.5,107.7,150.4,107.2,150.5L107.2,150.5z"
   id="path198" />
		<path
   class="st1"
   d="M130.1,130.1c-0.4-0.1-0.5-0.2-0.3-0.6C129.9,129.7,130,129.9,130.1,130.1L130.1,130.1z"
   id="path200" />
		<path
   class="st1"
   d="M117.6,148.3c-0.2,0.4-0.6,0.5-1,0.5l0.1,0.1C116.7,148.3,117.2,148.3,117.6,148.3L117.6,148.3z"
   id="path202" />
		<path
   class="st1"
   d="M116.5,148.8c-0.2,0.6-0.6,0.6-1.1,0.5l0.1,0.1C115.7,148.9,116.1,148.8,116.5,148.8L116.5,148.8z"
   id="path204" />
		<path
   class="st1"
   d="M106.1,150.9c0.2-0.5,0.6-0.6,1.1-0.4l0-0.1C107,150.9,106.6,151,106.1,150.9L106.1,150.9z"
   id="path206" />
		<path
   class="st1"
   d="M118.1,147.8c0.1,0.4-0.2,0.5-0.5,0.5l0.1,0.1C117.4,147.9,117.8,147.9,118.1,147.8L118.1,147.8z"
   id="path208" />
		<path
   class="st1"
   d="M115.1,150c-0.2-0.5,0.1-0.5,0.4-0.6l-0.1-0.1C115.7,149.8,115.3,149.8,115.1,150L115.1,150z"
   id="path210" />
		<path
   class="st1"
   d="M109.3,149.9c0,0.3-0.2,0.5-0.5,0.5l0,0C108.7,150,108.9,149.8,109.3,149.9L109.3,149.9z"
   id="path212" />
	</g>
	<g
   id="g246">
		<path
   class="st2"
   d="M140.3,232.7c-52.9,0.4-98.2-43-98.3-98.2C42,80.4,86.2,35,142.5,36c53.8,1,97.6,45.7,96.3,100.8    C237.6,190.6,193,233.2,140.3,232.7z M176.8,154.7c0.5,0.4,0.4,0.9,0.4,1.4c0.1,2.7,0.2,5.4,0.2,8c0.1,11,0.3,22,0.4,33    c0.1,5.4,0.1,10.7,0.2,16.1c0,0.5-0.2,1.2,0.3,1.6c37.9-17.1,61.5-62.3,47-107.5c-14.9-46.6-59.6-65.3-91.4-61.5    c0,2.3,0,4.6,0,7.1c4.6-0.7,9-1.4,13.5-1.4c7.3-0.1,14.5,0.3,21.5,2.6c12.6,4.3,19,12.9,19.3,26.2c0.1,5.2-1.7,9.4-5.8,12.7    c-2.6,2-5.4,3.4-8.4,4.5c-6.3,2.3-12.9,3.4-19.4,4.7c-4.6,0.9-9.2,1.6-13.6,3.2c-4.7,1.7-8.2,4.8-10.2,9.4    c-1.5,3.7-1.9,7.5-1.4,11.5c0.1,0.7,0.4,1.4,0,2.3c-0.9-1.8-1.4-3.5-1.8-5.3c-1.3-5.6-2-11.2,0.3-16.8c0.3-0.7,0.2-1.5,0.2-2.3    c0-15,0-30,0-45c0-0.7,0.2-1.4-0.4-2.1c-1.4-0.2-2.9,0-4.7,0.2c1.5-1.8,3.5-1.8,5.1-2.9c-0.1-2.5,0.2-5.1-0.2-7.7    C97.1,49.7,59,75.7,52.3,121.8c-5.9,40.3,16.7,76.2,46,90.7c0.1-20.5,1-41,0.4-61.7c1.3-1,2.5-2.5,4.3-3.2c1.4,0.9,2,2.3,3.1,3.3    l0.1,0.1c-0.4,1-1.3,1.3-2.2,1.6c0.2-0.6,1-0.7,1.1-1.5c-0.6-0.6-0.9-1.5-1.9-1.8c-0.4,0.8-0.2,1.5-0.1,2.2    c-0.7-0.5,0.1-1.6-0.9-2c-1,0.7-1.9,1.4-2.7,2.3c0,2.6,0,5.1,0,7.6c0.1,2.5-0.2,5.1,0.2,7.8c11.9-6,22.8-11.8,34.9-17.9    c-0.3,8.6-0.4,16.8-0.5,25c-0.1,8.1-0.5,16.3-0.5,24.4c0.1,8.1-0.1,16.2,0.6,24.3c0.8-6.1,1.2-11.9,1.3-18    c0.1-6.1,0.4-12.3,0.5-18.4c0.1-6.1,0.1-12.3,0.3-18.4c0.3-6.1,0.2-12.2,0.3-18.5c13.8,6.3,26.5,12.4,40.3,18.6    C176.7,163.4,177.2,159,176.8,154.7L176.8,154.7z M133.9,57.9c-0.3,3.4-0.3,39.7,0.1,41.8c3.4-2,6.6-4.1,9.6-6.6    c7.8-6.3,7.8-18,4.8-24.2C145.4,62.8,140.3,59.7,133.9,57.9z"
   id="path216"
   style="fill:#000000" />
		<path
   class="st2"
   d="M176.9,154.6c-0.4-0.6-0.6-1.3-1.4-1.8c-6.6-4-13.2-8.1-19.8-12.2c-0.2-0.1-0.5-0.1-0.9-0.3    c-0.4,1.5-0.3,3,0.1,4.5c-1.8-0.3-8.1-3.9-14.1-8c0.3-1.6,0.3-3.3,0.2-5.1c-1.9-1.4-4-2.6-6.2-3.8c-1.9,1.3-3.3,2.8-4.9,4.2    c-0.5,1.2-0.3,2.3,0.2,3.4c-1.3,1.3-2.9,2.2-4.4,3.2c-1.5,1-3,2-4.3,3c-1.1-0.3-0.1-1.3-1.2-1.5c-0.6,0.2-1.1,0.6-1.6,1.4    c-0.3,1.4,0,2.9,0,4.4c0,0.7,0.5,1.6-0.6,2l0,0c-0.2-2.5,0.6-5-0.1-7.6c1-0.7,1.9-1.5,2.8-2.1c1,0,1.3,1,2.2,1.3    c2-1.4,4-2.8,6-4.1c0.3-1.3,0-2.4-0.4-3.4c0.5-0.6,1-1.2,1.5-1.7l-0.1,0.1c1.5-1.2,2.9-2.4,4.6-3.8c2.5,1.5,5,3.1,7.7,4.8    c-1.4,1.7-0.5,3.5-0.8,5.2c3,1.8,5.9,3.6,8.9,5.4c1.4-1.1,2.7-2.2,4.2-3.3c7.8,4.9,15.5,9.7,23.3,14.5    C177.6,153.8,176.5,153.8,176.9,154.6L176.9,154.6z M121.5,139.6c-0.1,0.1-0.2,0.3-0.2,0.4c0,0.2,0.2,0.2,0.3,0    C121.8,139.9,121.7,139.7,121.5,139.6z"
   id="path218"
   style="fill:#000000" />
		<path
   class="st2"
   d="M156.6,146.2c4.7-0.2,7.5,2.1,9.9,5.5c0.1,1.4,0.2,2.8-0.2,4.5c-3.4-1.4-6.4-3.3-9.6-4.9    C156.3,149.7,156.7,148.1,156.6,146.2z"
   id="path220"
   style="fill:#000000" />
		<path
   class="st2"
   d="M171.1,155c0.8,0.5,1.4,0.9,1.9,1.2c0.3,0.8,0.2,1.4,0.1,2.1c-1,0-1.6-0.7-2.3-1.1    C170.5,156.5,170.7,155.9,171.1,155z"
   id="path222" />
		<path
   class="st2"
   d="M115.3,149.8c-2,0.7-3.7,0.5-4.6,0.1C113,149.6,114.4,149.8,115.3,149.8L115.3,149.8z"
   id="path224" />
		<path
   class="st2"
   d="M103,151.4c0.4,0.3,0.4,1,1.1,1.1c0,0.5-0.4,0.7-0.8,0.8C102.6,152.7,103.3,152,103,151.4z"
   id="path226" />
		<path
   class="st2"
   d="M109.3,150c0.4-1.1,1.1-0.5,1.8-0.4C110.6,150.2,109.9,149.7,109.3,150L109.3,150z"
   id="path228" />
		<path
   class="st2"
   d="M107.2,150.5c0.5-1.2,1,0,1.5,0l0,0C108.2,151.5,107.7,150.4,107.2,150.5L107.2,150.5z"
   id="path230" />
		<path
   class="st2"
   d="M130.1,130.1c-0.4-0.1-0.5-0.2-0.3-0.6C129.9,129.7,130,129.9,130.1,130.1L130.1,130.1z"
   id="path232" />
		<path
   class="st2"
   d="M117.6,148.3c-0.2,0.4-0.6,0.5-1,0.5l0.1,0.1C116.7,148.3,117.2,148.3,117.6,148.3L117.6,148.3z"
   id="path234" />
		<path
   class="st2"
   d="M116.5,148.8c-0.2,0.6-0.6,0.6-1.1,0.5l0.1,0.1C115.7,148.9,116.1,148.8,116.5,148.8L116.5,148.8z"
   id="path236" />
		<path
   class="st2"
   d="M106.1,150.9c0.2-0.5,0.6-0.6,1.1-0.4l0-0.1C107,150.9,106.6,151,106.1,150.9L106.1,150.9z"
   id="path238" />
		<path
   class="st2"
   d="M118.1,147.8c0.1,0.4-0.2,0.5-0.5,0.5l0.1,0.1C117.4,147.9,117.8,147.9,118.1,147.8L118.1,147.8z"
   id="path240" />
		<path
   class="st2"
   d="M115.1,150c-0.2-0.5,0.1-0.5,0.4-0.6l-0.1-0.1C115.7,149.8,115.3,149.8,115.1,150L115.1,150z"
   id="path242" />
		<path
   class="st2"
   d="M109.3,149.9c0,0.3-0.2,0.5-0.5,0.5l0,0C108.7,150,108.9,149.8,109.3,149.9L109.3,149.9z"
   id="path244" />
	</g>
</g>
</svg>